<svg width="275" height="276" viewBox="0 0 275 276" fill="none" xmlns="http://www.w3.org/2000/svg">
<path d="M76.4312 242H74.2925L74.1606 239.861C73.4868 240.613 72.6665 241.209 71.6997 241.648C70.7329 242.078 69.6733 242.293 68.521 242.293C67.0854 242.293 65.7964 241.961 64.6538 241.297C63.5112 240.633 62.6079 239.725 61.9438 238.572C61.2896 237.42 60.9624 236.121 60.9624 234.676C60.9624 233.221 61.2896 231.922 61.9438 230.779C62.6079 229.627 63.5112 228.719 64.6538 228.055C65.7964 227.391 67.0854 227.059 68.521 227.059C69.6343 227.059 70.6597 227.259 71.5972 227.659C72.5444 228.06 73.355 228.616 74.0288 229.329V220.027H76.4312V242ZM68.7407 240.125C69.7173 240.125 70.606 239.9 71.4067 239.451C72.2075 238.992 72.8423 238.372 73.311 237.591C73.7896 236.8 74.0288 235.906 74.0288 234.91V234.412C74.0288 233.416 73.7896 232.527 73.311 231.746C72.8423 230.955 72.2075 230.335 71.4067 229.886C70.606 229.437 69.7173 229.212 68.7407 229.212C67.7251 229.212 66.8169 229.451 66.0161 229.93C65.2153 230.408 64.5806 231.058 64.1118 231.878C63.6528 232.698 63.4233 233.626 63.4233 234.661C63.4233 235.696 63.6528 236.629 64.1118 237.459C64.5806 238.279 65.2153 238.929 66.0161 239.407C66.8169 239.886 67.7251 240.125 68.7407 240.125ZM93.8188 240.198C92.0024 241.595 90.0005 242.293 87.813 242.293C86.2896 242.293 84.9224 241.951 83.7114 241.268C82.5005 240.584 81.5435 239.656 80.8403 238.484C80.147 237.303 79.8003 235.97 79.8003 234.485C79.8003 233.06 80.1226 231.79 80.7671 230.677C81.4116 229.554 82.2954 228.67 83.4185 228.025C84.5415 227.381 85.8159 227.059 87.2417 227.059C88.7065 227.059 89.9956 227.41 91.1089 228.113C92.2319 228.816 93.106 229.793 93.731 231.043C94.356 232.293 94.6685 233.738 94.6685 235.379V235.848H82.4077C82.5835 236.707 82.9351 237.454 83.4624 238.089C83.9897 238.724 84.6489 239.217 85.4399 239.568C86.2407 239.92 87.1294 240.096 88.106 240.096C89.7856 240.096 91.3188 239.544 92.7056 238.44L93.8188 240.198ZM82.3198 233.797H92.3979C92.2905 232.889 92.0073 232.098 91.5483 231.424C91.0991 230.74 90.5132 230.208 89.7905 229.827C89.0776 229.446 88.272 229.256 87.3735 229.256C86.4653 229.256 85.645 229.446 84.9126 229.827C84.1899 230.208 83.5991 230.74 83.1401 231.424C82.6909 232.098 82.4175 232.889 82.3198 233.797ZM97.0269 240.726L97.6567 238.47C98.0083 238.802 98.4087 239.09 98.8579 239.334C99.3071 239.578 99.7808 239.769 100.279 239.905C100.777 240.032 101.28 240.096 101.788 240.096C102.696 240.096 103.428 239.896 103.985 239.495C104.542 239.095 104.82 238.572 104.82 237.928C104.82 237.459 104.673 237.073 104.38 236.771C104.097 236.458 103.721 236.189 103.252 235.965C102.784 235.74 102.281 235.525 101.744 235.32C101.089 235.066 100.44 234.778 99.7954 234.456C99.1509 234.134 98.6138 233.709 98.1841 233.182C97.7642 232.654 97.5542 231.961 97.5542 231.102C97.5542 230.281 97.7593 229.568 98.1694 228.963C98.5796 228.357 99.1509 227.889 99.8833 227.557C100.625 227.225 101.475 227.059 102.432 227.059C103.877 227.059 105.298 227.42 106.695 228.143L105.977 230.311C105.665 230.105 105.303 229.925 104.893 229.769C104.483 229.603 104.063 229.476 103.633 229.388C103.204 229.3 102.798 229.256 102.417 229.256C101.705 229.256 101.128 229.422 100.689 229.754C100.25 230.076 100.03 230.511 100.03 231.058C100.03 231.37 100.118 231.658 100.293 231.922C100.479 232.176 100.787 232.43 101.216 232.684C101.646 232.938 102.242 233.221 103.003 233.533C103.677 233.807 104.341 234.119 104.996 234.471C105.65 234.812 106.192 235.257 106.622 235.804C107.061 236.341 107.281 237.044 107.281 237.913C107.281 238.772 107.051 239.534 106.592 240.198C106.143 240.853 105.513 241.365 104.703 241.736C103.902 242.107 102.974 242.293 101.919 242.293C100.171 242.293 98.5405 241.771 97.0269 240.726ZM112.056 222.723C111.646 222.723 111.299 222.581 111.016 222.298C110.743 222.005 110.606 221.653 110.606 221.243C110.606 220.843 110.743 220.501 111.016 220.218C111.299 219.935 111.646 219.793 112.056 219.793C112.476 219.793 112.828 219.935 113.111 220.218C113.394 220.501 113.536 220.843 113.536 221.243C113.536 221.653 113.394 222.005 113.111 222.298C112.828 222.581 112.476 222.723 112.056 222.723ZM113.257 242H110.855V227.352H113.257V242ZM124.112 242C122.706 242 121.441 241.673 120.318 241.019C119.205 240.364 118.326 239.476 117.681 238.353C117.037 237.22 116.714 235.945 116.714 234.529C116.714 233.104 117.037 231.829 117.681 230.706C118.326 229.583 119.205 228.694 120.318 228.04C121.441 227.386 122.71 227.059 124.126 227.059C125.259 227.059 126.299 227.273 127.247 227.703C128.194 228.123 129 228.709 129.664 229.461L129.781 227.352H131.905V241.619C131.905 243.26 131.583 244.676 130.938 245.867C130.293 247.068 129.375 247.991 128.184 248.636C126.993 249.29 125.577 249.617 123.936 249.617C121.612 249.617 119.59 248.846 117.872 247.303L118.926 245.369C120.264 246.756 121.9 247.449 123.833 247.449C124.996 247.449 125.997 247.205 126.836 246.717C127.686 246.238 128.34 245.56 128.799 244.681C129.268 243.802 129.502 242.762 129.502 241.561V239.759C128.838 240.452 128.042 240.999 127.115 241.399C126.197 241.8 125.196 242 124.112 242ZM124.317 239.876C125.274 239.876 126.143 239.661 126.924 239.231C127.706 238.792 128.331 238.196 128.799 237.444C129.268 236.683 129.502 235.823 129.502 234.866V234.192C129.502 233.226 129.268 232.366 128.799 231.614C128.331 230.862 127.706 230.271 126.924 229.842C126.143 229.402 125.274 229.183 124.317 229.183C123.331 229.183 122.447 229.417 121.666 229.886C120.884 230.354 120.264 230.994 119.805 231.805C119.356 232.605 119.131 233.514 119.131 234.529C119.131 235.545 119.356 236.458 119.805 237.269C120.264 238.079 120.884 238.719 121.666 239.188C122.447 239.646 123.331 239.876 124.317 239.876ZM150.025 242H147.623V233.548C147.623 232.229 147.251 231.185 146.509 230.413C145.777 229.642 144.776 229.256 143.506 229.256C142.598 229.256 141.783 229.461 141.06 229.871C140.337 230.271 139.766 230.838 139.346 231.57C138.926 232.303 138.716 233.152 138.716 234.119V242H136.314V227.352H138.409L138.497 229.725C139.034 228.865 139.776 228.206 140.723 227.747C141.68 227.288 142.754 227.059 143.946 227.059C145.811 227.059 147.291 227.62 148.384 228.743C149.478 229.866 150.025 231.38 150.025 233.284V242ZM160.572 240.726L161.202 238.47C161.553 238.802 161.954 239.09 162.403 239.334C162.852 239.578 163.326 239.769 163.824 239.905C164.322 240.032 164.825 240.096 165.333 240.096C166.241 240.096 166.973 239.896 167.53 239.495C168.086 239.095 168.365 238.572 168.365 237.928C168.365 237.459 168.218 237.073 167.925 236.771C167.642 236.458 167.266 236.189 166.797 235.965C166.329 235.74 165.826 235.525 165.289 235.32C164.634 235.066 163.985 234.778 163.34 234.456C162.696 234.134 162.159 233.709 161.729 233.182C161.309 232.654 161.099 231.961 161.099 231.102C161.099 230.281 161.304 229.568 161.714 228.963C162.125 228.357 162.696 227.889 163.428 227.557C164.17 227.225 165.02 227.059 165.977 227.059C167.422 227.059 168.843 227.42 170.24 228.143L169.522 230.311C169.209 230.105 168.848 229.925 168.438 229.769C168.028 229.603 167.608 229.476 167.178 229.388C166.749 229.3 166.343 229.256 165.962 229.256C165.25 229.256 164.673 229.422 164.234 229.754C163.794 230.076 163.575 230.511 163.575 231.058C163.575 231.37 163.663 231.658 163.838 231.922C164.024 232.176 164.332 232.43 164.761 232.684C165.191 232.938 165.787 233.221 166.548 233.533C167.222 233.807 167.886 234.119 168.541 234.471C169.195 234.812 169.737 235.257 170.167 235.804C170.606 236.341 170.826 237.044 170.826 237.913C170.826 238.772 170.596 239.534 170.137 240.198C169.688 240.853 169.058 241.365 168.248 241.736C167.447 242.107 166.519 242.293 165.464 242.293C163.716 242.293 162.085 241.771 160.572 240.726ZM182.691 241.648C181.724 242.078 180.782 242.293 179.864 242.293C178.985 242.293 178.213 242.103 177.549 241.722C176.885 241.331 176.368 240.789 175.997 240.096C175.625 239.393 175.44 238.577 175.44 237.649V229.505H172.876V227.352H175.557V223.689H177.842V227.352H182.222V229.505H177.842V237.21C177.842 238.089 178.077 238.797 178.545 239.334C179.024 239.871 179.649 240.14 180.42 240.14C181.045 240.14 181.67 239.954 182.295 239.583L182.691 241.648ZM199.332 242H197.222L197.134 239.627C196.597 240.486 195.889 241.146 195.01 241.604C194.141 242.063 193.111 242.293 191.919 242.293C189.976 242.293 188.438 241.707 187.305 240.535C186.182 239.354 185.621 237.742 185.621 235.701V227.352H188.023V235.525C188.023 236.912 188.414 238.021 189.195 238.851C189.986 239.681 191.036 240.096 192.344 240.096C193.711 240.096 194.815 239.646 195.655 238.748C196.504 237.85 196.929 236.678 196.929 235.232V227.352H199.332V242ZM218.169 242H216.031L215.899 239.861C215.225 240.613 214.405 241.209 213.438 241.648C212.471 242.078 211.412 242.293 210.259 242.293C208.824 242.293 207.535 241.961 206.392 241.297C205.25 240.633 204.346 239.725 203.682 238.572C203.028 237.42 202.701 236.121 202.701 234.676C202.701 233.221 203.028 231.922 203.682 230.779C204.346 229.627 205.25 228.719 206.392 228.055C207.535 227.391 208.824 227.059 210.259 227.059C211.373 227.059 212.398 227.259 213.335 227.659C214.283 228.06 215.093 228.616 215.767 229.329V220.027H218.169V242ZM210.479 240.125C211.456 240.125 212.344 239.9 213.145 239.451C213.946 238.992 214.581 238.372 215.049 237.591C215.528 236.8 215.767 235.906 215.767 234.91V234.412C215.767 233.416 215.528 232.527 215.049 231.746C214.581 230.955 213.946 230.335 213.145 229.886C212.344 229.437 211.456 229.212 210.479 229.212C209.463 229.212 208.555 229.451 207.754 229.93C206.954 230.408 206.319 231.058 205.85 231.878C205.391 232.698 205.162 233.626 205.162 234.661C205.162 235.696 205.391 236.629 205.85 237.459C206.319 238.279 206.954 238.929 207.754 239.407C208.555 239.886 209.463 240.125 210.479 240.125ZM223.97 222.723C223.56 222.723 223.213 222.581 222.93 222.298C222.657 222.005 222.52 221.653 222.52 221.243C222.52 220.843 222.657 220.501 222.93 220.218C223.213 219.935 223.56 219.793 223.97 219.793C224.39 219.793 224.742 219.935 225.025 220.218C225.308 220.501 225.45 220.843 225.45 221.243C225.45 221.653 225.308 222.005 225.025 222.298C224.742 222.581 224.39 222.723 223.97 222.723ZM225.171 242H222.769V227.352H225.171V242ZM236.304 242.293C234.849 242.293 233.541 241.961 232.378 241.297C231.216 240.633 230.298 239.729 229.625 238.587C228.96 237.435 228.628 236.131 228.628 234.676C228.628 233.23 228.96 231.937 229.625 230.794C230.298 229.642 231.216 228.733 232.378 228.069C233.541 227.396 234.849 227.059 236.304 227.059C237.759 227.059 239.063 227.396 240.215 228.069C241.368 228.733 242.276 229.642 242.94 230.794C243.604 231.937 243.936 233.23 243.936 234.676C243.936 236.131 243.604 237.435 242.94 238.587C242.276 239.729 241.368 240.633 240.215 241.297C239.063 241.961 237.759 242.293 236.304 242.293ZM236.29 240.125C237.276 240.125 238.16 239.886 238.941 239.407C239.722 238.929 240.337 238.279 240.787 237.459C241.246 236.639 241.475 235.711 241.475 234.676C241.475 233.641 241.246 232.713 240.787 231.893C240.337 231.072 239.722 230.423 238.941 229.944C238.16 229.466 237.276 229.227 236.29 229.227C235.303 229.227 234.415 229.466 233.624 229.944C232.842 230.423 232.222 231.072 231.763 231.893C231.314 232.713 231.089 233.641 231.089 234.676C231.089 235.711 231.314 236.639 231.763 237.459C232.222 238.279 232.842 238.929 233.624 239.407C234.415 239.886 235.303 240.125 236.29 240.125Z" fill="white"/>
<path d="M176.934 50.4982L178.602 50.9431L182.162 50.4982C183.497 50.4982 184.164 50.7577 184.164 51.2768C185.721 51.0543 186.5 50.7948 186.5 50.4982C192.506 51.0172 196.622 51.6846 198.846 52.5003L199.736 52.0554C209.969 53.9092 217.125 56.9865 221.203 61.2874C224.095 65.1434 225.541 69.1105 225.541 73.189C223.984 80.4559 218.682 88.1678 209.635 96.3247C205.038 100.106 199.18 103.814 192.061 107.448C188.65 109.598 181.754 112.787 171.373 117.013L171.039 117.792C186.759 121.87 200.44 129.174 212.082 139.704C214.53 141.632 217.051 146.563 219.646 154.498L219.201 155.276C220.017 157.872 220.425 159.577 220.425 160.393C220.425 164.768 217.347 171.034 211.193 179.191C206.373 184.233 197.215 189.387 183.719 194.651L169.037 197.432L167.035 196.654C163.994 197.988 159.211 198.656 152.686 198.656L151.129 197.877C150.832 197.877 149.757 198.025 147.903 198.322L144.344 197.877C142.861 198.174 141.786 198.322 141.118 198.322C140.154 197.729 138.968 197.432 137.559 197.432C137.262 197.432 136.854 197.58 136.335 197.877C131.515 197.061 128.735 196.283 127.993 195.541C127.771 195.541 126.955 195.652 125.546 195.875C121.616 194.688 119.243 193.91 118.427 193.539H117.982L116.87 194.318H116.425C115.09 194.318 114.423 193.91 114.423 193.094H111.642C111.642 191.24 110.567 190.313 108.417 190.313V189.869H106.081C105.339 189.869 104.524 189.609 103.634 189.09C103.189 189.387 102.67 189.535 102.077 189.535C101.706 188.867 99.1847 187.792 94.513 186.309C94.513 185.494 92.6592 184.974 88.9516 184.752C88.1359 182.898 85.6147 181.563 81.388 180.748C81.388 180.451 80.8689 180.043 79.8308 179.524H78.9409C72.5638 188.052 68.1888 194.837 65.8159 199.879C65.2968 199.879 63.962 201.622 61.8116 205.107C59.8836 205.997 58.0298 209.037 56.2501 214.228C55.6569 214.228 53.1357 217.416 48.6865 223.794C48.0933 223.794 44.9047 226.834 39.1208 232.914C37.9344 232.914 36.5996 234.101 35.1166 236.474H31.5572V235.695C31.5572 235.102 32.892 234.064 35.5615 232.581L35.1166 230.579C36.8221 229.318 38.1568 227.316 39.1208 224.572C41.2712 223.756 42.606 223.089 43.1251 222.57L42.7914 221.791V221.346C45.1643 219.863 46.3507 218.417 46.3507 217.009H45.1272V215.785C46.017 215.785 46.6844 215.006 47.1293 213.449C47.7225 213.449 48.2416 212.374 48.6865 210.224C50.2437 208.073 51.1707 206.998 51.4673 206.998C51.4673 207.294 51.6156 207.443 51.9122 207.443C51.5414 208.703 51.0224 209.371 50.355 209.445C50.5774 209.964 50.6887 210.372 50.6887 210.668H51.1336C52.9874 208.963 53.9143 207.628 53.9143 206.664C53.6177 205.626 53.0616 205.107 52.2459 205.107V204.662C54.9895 201.399 57.3995 197.692 59.4758 193.539C61.6262 193.02 62.7014 192.204 62.7014 191.092L62.2565 189.535C62.4048 188.126 64.2586 186.124 67.818 183.528C67.8921 183.009 68.1517 182.75 68.5966 182.75L68.2629 181.971V181.193C68.4112 181.193 68.9303 181.044 69.8201 180.748L69.3752 177.967H71.3773V177.188C70.6358 174 69.0415 172.406 66.5945 172.406C64.5923 172.406 62.6273 170.922 60.6993 167.956C58.2523 167.215 54.248 164.694 48.6865 160.393H48.3528C48.0562 160.393 47.9079 160.541 47.9079 160.838C47.3889 160.838 45.7946 159.095 43.1251 155.61C41.4195 155.61 40.0848 154.312 39.1208 151.717C39.4174 151.198 39.5657 150.642 39.5657 150.048H37.5636C37.1187 148.714 36.4513 148.046 35.5615 148.046L36.0064 146.044C35.1166 145.525 34.4492 145.266 34.0043 145.266V144.153C35.0424 144.153 35.5615 143.857 35.5615 143.263C34.4492 143.263 33.374 142.077 32.3358 139.704C32.7807 138.666 33.1886 138.147 33.5593 138.147C34.7458 140.594 36.5996 143.115 39.1208 145.711C39.1208 148.899 40.9746 150.493 44.6823 150.493V150.827L43.9037 152.051C43.9778 152.57 44.2374 152.829 44.6823 152.829H45.9058C46.2024 152.829 46.3507 152.718 46.3507 152.495C48.0562 152.495 49.391 153.422 50.355 155.276C53.0986 156.685 56.9175 159.318 61.8116 163.174C66.9282 166.214 70.9324 168.216 73.8244 169.18H74.1581C74.3064 169.18 74.7142 168.92 75.3816 168.401H75.8265V169.958C76.2714 170.255 76.7905 170.403 77.3837 170.403C77.6803 170.107 77.9399 168.364 78.1623 165.176L76.6051 166.399V165.621C76.6051 164.805 77.3837 163.989 78.9409 163.174C79.0892 163.767 79.3858 164.063 79.8308 164.063L80.1644 163.174L79.3858 162.84C79.3858 163.062 79.2375 163.174 78.9409 163.174C78.9409 162.654 78.8297 162.395 78.6072 162.395L82.9452 154.831C83.6867 153.274 84.6136 152.495 85.7259 152.495L85.3922 151.717C85.6147 149.566 86.2821 148.491 87.3944 148.491C87.9134 148.788 88.2842 148.936 88.5066 148.936C89.3223 147.898 89.7302 147.082 89.7302 146.489C88.9145 146.192 88.5066 145.933 88.5066 145.711C88.5066 145.191 89.174 143.597 90.5088 140.928L92.1772 141.373C92.6963 141.076 93.0671 140.928 93.2895 140.928V140.149L92.5109 138.926V138.147C94.2164 138.147 95.8107 136.404 97.2938 132.919H98.5173V131.807H96.9601C96.3669 131.807 96.0702 132.326 96.0702 133.364H95.7366C95.7366 132.029 93.7344 131.102 89.7302 130.583C89.7302 130.287 89.6189 130.138 89.3965 130.138L89.7302 128.136V127.803H88.9516V127.358L89.7302 126.134V125.8H88.9516C88.4325 125.8 88.173 126.208 88.173 127.024H86.9494C86.9494 123.39 92.1401 119.905 102.522 116.568C104.005 114.196 105.339 113.009 106.526 113.009L105.636 111.897L109.64 109.005V108.671H109.307L107.304 109.005L109.64 104.222C111.42 102.516 113.162 98.4009 114.868 91.8755C115.98 91.0598 119.28 84.0524 124.767 70.8531C124.248 70.8531 123.989 70.7048 123.989 70.4082C109.9 75.2282 94.2535 83.0513 77.05 93.8776C66.8911 100.774 59.4387 106.632 54.6929 111.452L51.9122 117.792L49.9101 118.237C47.3147 118.237 45.7204 116.902 45.1272 114.233C45.8687 110.377 48.909 106.113 54.248 101.441C59.5129 97.7336 62.7014 94.8416 63.8137 92.7653C69.8201 88.5386 74.7513 85.6096 78.6072 83.9782C78.978 82.4951 82.0183 80.493 87.728 77.9718H88.5066L91.2874 78.4167L91.7323 77.6381C91.7323 77.0449 91.4728 76.7483 90.9537 76.7483L90.1751 77.1932V76.7483C96.7747 72.1508 101.928 69.6296 105.636 69.1847C105.636 68.4432 107.23 67.9241 110.419 67.6275C110.419 66.3669 116.129 63.994 127.548 60.5088C133.851 57.8393 138.374 56.5046 141.118 56.5046H143.899C143.899 55.763 145.382 55.0956 148.348 54.5024L150.239 54.8361C153.947 53.3531 162.845 51.9071 176.934 50.4982ZM160.695 61.2874L159.805 60.8425C150.313 62.6963 142.898 64.4389 137.559 66.0703C127.4 90.3924 120.207 105.927 115.98 112.675V113.788C119.762 113.639 121.653 113.269 121.653 112.675L124.434 113.009H127.214C127.808 113.009 128.327 112.898 128.772 112.675C129.291 112.898 129.699 113.009 129.995 113.009L133.11 112.23C133.11 112.75 137.633 113.269 146.68 113.788C147.273 113.788 147.829 113.676 148.348 113.454L150.684 113.788H154.243C172.114 107.781 186.611 101.441 197.734 94.7675C207.596 86.9072 213.566 79.9739 215.642 73.9676L215.976 71.6317L215.642 70.8531C215.864 70.3341 215.976 69.9262 215.976 69.6296C215.976 66.8118 211.489 63.8828 202.517 60.8425H201.627C201.404 60.8425 201.293 60.9908 201.293 61.2874C199.662 60.1751 194.619 59.3594 186.166 58.8404C184.238 59.137 183.163 59.2853 182.94 59.2853C181.531 58.9887 180.345 58.8404 179.381 58.8404C177.824 59.3594 171.595 60.1751 160.695 61.2874ZM130.329 127.024C129.884 126.727 129.365 126.579 128.772 126.579C128.772 127.84 124.508 128.767 115.98 129.36V129.805L115.202 129.36H114.868C109.01 130.324 106.081 131.139 106.081 131.807C99.2588 143.078 91.4357 157.13 82.6115 173.963C91.4357 178.56 100.445 182.268 109.64 185.086C110.456 185.753 114.312 186.717 121.208 187.978C121.505 188.274 125.88 189.053 134.333 190.313C135.742 190.017 136.558 189.869 136.78 189.869C139.672 190.462 141.526 191.018 142.342 191.537L143.899 190.758L151.129 191.537C171.817 189.387 184.831 186.606 190.17 183.195C197.66 180.006 202.962 176.002 206.076 171.182C208.152 169.847 210.154 165.213 212.082 157.278C210.303 152.533 208.82 149.084 207.633 146.934C206.521 146.192 204.519 143.931 201.627 140.149C200.07 138.518 198.772 137.702 197.734 137.702C195.658 136.59 194.175 135.255 193.285 133.698C191.579 133.698 186.018 131.473 176.6 127.024C174.45 127.024 171.113 126.097 166.59 124.243C166.293 124.243 165.922 124.354 165.477 124.577C159.916 123.539 155.244 123.02 151.462 123.02C138.782 125.689 131.738 127.024 130.329 127.024ZM89.7302 144.487V145.266H90.9537C90.9537 145.043 91.0649 144.672 91.2874 144.153L90.5088 143.708C89.9897 143.783 89.7302 144.042 89.7302 144.487ZM87.728 146.044H88.5066V146.934H87.728V146.044ZM81.388 160.059V161.616H82.1666V160.059H81.388ZM59.4758 195.096C59.5499 195.615 59.8095 195.875 60.2544 195.875L60.6993 195.096V194.318H60.2544C59.7353 194.392 59.4758 194.651 59.4758 195.096ZM43.1251 219.011H43.57V219.789H43.1251V219.011ZM30 237.363H31.2235V238.476H30V237.363Z" fill="#FF0C00"/>
<path d="M236.592 55.7836C242.197 56.6832 245 60.6275 245 67.6165C243.478 75.159 241.159 80.6949 238.046 84.224H235.658V82.8746C235.658 81.975 236.073 81.5252 236.904 81.5252V81.4214C235.52 79.9683 234.828 78.9303 234.828 78.3075C234.828 77.062 235.105 75.6434 235.658 74.0519C235.658 73.9135 235.52 73.5675 235.243 73.0139C235.52 70.592 235.658 68.6198 235.658 67.0975C235.658 65.2983 234.551 63.1532 232.337 60.6621C232.89 57.4098 234.309 55.7836 236.592 55.7836Z" fill="#FF0C00"/>
</svg>
