<svg width="631" height="275" viewBox="0 0 631 275" fill="none" xmlns="http://www.w3.org/2000/svg">
<path d="M530.165 80.7256C535.28 81.5465 537.837 85.1462 537.837 91.5244C536.448 98.4079 534.333 103.46 531.491 106.681H529.312V105.449C529.312 104.628 529.691 104.218 530.449 104.218V104.123C529.186 102.797 528.554 101.85 528.554 101.281C528.554 100.145 528.807 98.8499 529.312 97.3975C529.312 97.2712 529.186 96.9554 528.933 96.4502C529.186 94.2399 529.312 92.4401 529.312 91.0508C529.312 89.4089 528.302 87.4512 526.281 85.1777C526.786 82.2096 528.081 80.7256 530.165 80.7256Z" fill="#FF0C00"/>
<path d="M466.129 130.268C468.592 130.457 469.887 131.436 470.013 133.204L470.108 133.867C470.297 135.951 469.634 138.067 468.119 140.214V140.593H468.403C473.455 135.225 477.307 132.288 479.96 131.783C479.896 131.341 481.033 130.583 483.37 129.51H485.643C490.632 129.51 493.411 132.541 493.979 138.604C493.284 139.93 492.937 140.814 492.937 141.256L493.316 141.919C491.737 147.855 491.043 151.739 491.232 153.57L491.421 155.938C491.485 156.254 491.864 156.57 492.558 156.886H493.221C499.473 155.307 505.157 152.497 510.272 148.455C515.387 144.413 519.082 140.782 521.355 137.562C522.871 135.604 523.976 134.53 524.67 134.341C525.365 134.088 525.997 134.215 526.565 134.72C527.133 135.162 526.754 136.488 525.428 138.698C521.766 144.382 518.166 148.897 514.629 152.244C511.093 155.528 506.799 158.591 501.747 161.433C500.294 162.317 497.989 163.075 494.832 163.706C488.011 163.011 484.38 160.517 483.938 156.223C483.749 155.907 483.591 155.244 483.464 154.233C483.338 152.718 484.475 147.508 486.875 138.604L486.59 136.046C486.527 135.604 486.275 135.383 485.833 135.383H484.601C480.875 138.098 477.055 141.351 473.139 145.14C472.823 145.14 471.845 146.34 470.203 148.739C469.319 149.055 467.392 151.644 464.424 156.507C463.603 156.696 462.814 158.559 462.056 162.096C459.53 166.769 457.92 169.263 457.225 169.579C457.288 169.769 456.878 169.99 455.994 170.242C452.899 169.611 451.257 168.411 451.068 166.643V166.358C451.51 161.748 453.31 155.654 456.467 148.076C459.183 143.277 461.583 137.783 463.667 131.594C464.677 130.71 465.498 130.268 466.129 130.268Z" fill="#FF0C00"/>
<path d="M449.363 99.5762C452.015 100.081 453.405 100.334 453.531 100.334V101.471C452.647 104.312 448.479 108.228 441.027 113.217C437.301 115.49 434.522 116.627 432.691 116.627C430.165 116.311 428.902 115.048 428.902 112.838C428.902 110.943 432.944 108.038 441.027 104.123C443.048 102.607 445.826 101.092 449.363 99.5762ZM428.523 130.646H429.281C430.67 130.646 431.681 131.278 432.312 132.541V133.678C428.018 141.761 425.871 148.329 425.871 153.381V157.549C425.871 159.507 426.628 160.896 428.144 161.717H431.175C434.522 161.717 440.459 157.928 448.984 150.35C449.742 150.35 450.5 149.592 451.257 148.076C451.636 148.076 455.046 144.54 461.488 137.467C461.867 137.467 462.246 136.709 462.625 135.193C464.14 134.183 465.277 133.678 466.035 133.678H466.414C466.919 133.741 467.171 133.993 467.171 134.436C465.024 141.193 460.73 148.266 454.289 155.654C446.774 162.854 440.332 167.148 434.964 168.537L431.175 169.295C422.334 168.285 417.914 163.99 417.914 156.412C417.598 156.412 417.345 155.654 417.156 154.139C419.05 144.161 421.829 137.467 425.492 134.057L428.523 130.646Z" fill="#FF0C00"/>
<path d="M388.643 87.5459C389.906 88.0511 390.917 88.6826 391.674 89.4404C390.853 91.2087 388.391 98.2184 384.286 110.47C382.012 114.259 380.497 118.395 379.739 122.879C374.434 135.635 371.056 144.792 369.603 150.35H369.224C370.992 149.15 372.792 147.318 374.624 144.855C374.876 144.855 376.581 142.961 379.739 139.172L388.643 132.162L395.085 129.983C398.242 129.983 400.579 132.636 402.094 137.94V138.319C402.157 139.33 401.589 144.003 400.389 152.339C400.894 154.865 401.305 156.128 401.621 156.128H402.568C406.294 156.128 412.862 150.255 422.271 138.509C422.903 137.309 424.134 135.699 425.965 133.678L426.25 132.162H428.428L428.144 134.341C428.965 134.404 429.376 134.783 429.376 135.478C428.744 136.741 428.144 139.109 427.576 142.582L420.661 151.96L413.84 157.928C409.294 161.654 405.725 163.517 403.136 163.517C398.779 163.517 395.59 161.148 393.569 156.412L393.285 151.486C393.158 149.465 393.664 144.982 394.8 138.035C394.737 137.151 394.485 136.709 394.043 136.709C389.369 138.477 381.981 145.519 371.877 157.833C368.719 164.085 365.404 168.821 361.93 172.042C358.267 171.789 356.405 170.716 356.341 168.821C356.468 167.685 356.626 167.116 356.815 167.116C356.878 167.558 356.752 167.779 356.436 167.779C357.383 163.674 358.141 161.622 358.71 161.622L358.615 160.012C358.615 159.317 360.415 154.107 364.014 144.382V144.571H363.351C366.067 139.077 368.087 134.404 369.414 130.552C370.298 127.457 374.75 116.28 382.77 97.0186C385.044 90.7035 387.001 87.5459 388.643 87.5459Z" fill="#FF0C00"/>
<path d="M344.406 122.121H345.827C349.805 122.626 351.794 124.268 351.794 127.047V127.899C350.089 134.404 347.974 137.656 345.448 137.656C343.364 137.656 341.911 136.456 341.09 134.057C342.038 131.278 342.511 129.604 342.511 129.036C340.364 129.604 335.312 133.93 327.355 142.014C324.64 147.382 323.282 150.665 323.282 151.865V154.612C323.282 157.075 326.124 158.307 331.807 158.307C346.142 156.16 357.352 149.592 365.435 138.604C366.256 138.604 368.498 136.867 372.161 133.394H373.392L373.961 137.467C373.455 137.467 371.719 139.677 368.751 144.098C368.119 144.098 365.846 146.466 361.93 151.202C353.026 160.359 342.543 165.032 330.481 165.222H328.681C321.735 165.222 317.282 161.622 315.325 154.423V153.286C315.325 147.287 318.861 141.098 325.934 134.72C335.596 126.321 341.753 122.121 344.406 122.121ZM371.119 137.088C371.119 137.151 371.087 137.183 371.024 137.183L371.877 135.856V136.046H371.971C371.845 136.046 371.561 136.393 371.119 137.088Z" fill="#FF0C00"/>
<path d="M301.305 74L303.2 74.4736L305.378 74C306.515 75.4525 307.084 76.526 307.084 77.2207C307.084 78.9258 304.558 84.0726 299.505 92.6611C299.632 93.4821 299.979 93.8926 300.547 93.8926H306.705C307.968 93.3242 318.767 92.2507 339.101 90.6719L345.069 89.8193L346.963 89.3457C349.174 89.6615 351.1 89.8193 352.742 89.8193C353.247 89.3141 355.741 88.8721 360.225 88.4932C361.551 88.8089 362.814 88.9668 364.014 88.9668H365.53C366.161 88.9668 366.667 88.8405 367.045 88.5879L367.709 88.9668C370.55 88.3353 372.476 88.0195 373.487 88.0195C374.876 88.0195 376.392 88.3353 378.034 88.9668C379.044 88.3353 380.055 88.0195 381.065 88.0195H385.612C386.243 88.0195 386.749 87.8932 387.128 87.6406C387.506 87.8932 388.012 88.0195 388.643 88.0195H391.295C392.369 88.0195 393.379 87.8932 394.327 87.6406C395.274 87.8932 396.284 88.0195 397.358 88.0195C393.822 88.3984 395.874 88.5879 403.515 88.5879C403.452 88.5247 403.705 88.4932 404.273 88.4932C405.094 87.9248 405.82 87.6406 406.452 87.6406C410.114 87.8932 412.23 88.0195 412.798 88.0195V87.7354L415.545 88.4932L428.049 87.6406L430.323 88.0195L435.059 87.167L435.438 88.1143L440.174 87.6406H445.1C445.542 87.6406 445.763 87.7985 445.763 88.1143C445.637 88.1143 445.574 87.9564 445.574 87.6406L449.647 87.167C451.857 87.4827 453.531 87.6406 454.668 87.6406V89.0615L452.205 87.6406H454.573C455.52 87.6406 456.625 87.4827 457.888 87.167L458.646 87.6406L464.424 86.6934L466.224 87.6406C466.603 87.6406 467.045 87.4827 467.55 87.167C468.056 87.167 468.308 87.3249 468.308 87.6406C471.024 87.3249 473.013 87.167 474.276 87.167H481.854L484.128 86.6934C484.696 86.946 484.98 87.2617 484.98 87.6406C485.675 87.6406 486.78 87.3564 488.295 86.7881L490.19 87.6406C490.695 87.3249 491.2 87.4827 491.706 88.1143H491.8V89.3457H493.127C493.379 87.5775 493.663 86.6934 493.979 86.6934H502.883L504.399 89.3457H506.294C506.609 88.1458 506.767 87.388 506.767 87.0723C506.893 87.0723 506.957 87.2617 506.957 87.6406L506.104 86.6934C507.493 86.6934 509.23 87.5775 511.314 89.3457C512.072 89.3457 512.451 88.8721 512.451 87.9248C511.693 87.9248 511.314 87.9248 511.314 87.9248L512.261 86.9775L513.398 86.7881C513.587 88.8089 514.408 89.8193 515.861 89.8193C515.861 88.0511 514.629 87.3249 512.167 87.6406H518.419L517.85 89.8193H518.987C519.934 89.8193 520.85 89.3773 521.734 88.4932C522.429 88.4932 523.281 88.9668 524.292 89.9141L525.428 89.251L524.955 88.1143V87.8301C524.955 88.0195 525.018 88.1143 525.144 88.1143C525.144 87.7985 526.218 88.3669 528.365 89.8193H529.88C529.88 88.8721 530.67 88.1458 532.249 87.6406C532.628 87.8932 533.164 88.0195 533.859 88.0195C533.291 88.3984 533.543 88.5879 534.617 88.5879C534.617 88.2721 535.059 88.3984 535.943 88.9668C536.132 88.9668 536.669 88.8089 537.553 88.4932H538.974C538.974 88.5563 539.132 88.2721 539.448 87.6406H541.153C541.216 87.7669 541.248 88.2721 541.248 89.1562L542.1 90.1035C541.469 90.1035 540.616 89.7246 539.543 88.9668V88.3984L540.3 88.8721C537.648 89.693 536.227 90.1035 536.038 90.1035H534.143C533.259 90.1035 532.091 89.9772 530.638 89.7246L529.123 90.5771C527.481 90.2614 526.123 90.1035 525.049 90.1035H524.576C522.808 91.1771 521.923 91.3981 521.923 90.7666C521.102 90.3245 520.345 90.1035 519.65 90.1035C518.829 90.735 518.229 91.0508 517.85 91.0508L515.671 90.4824C515.671 90.7982 515.671 91.1139 515.671 91.4297H513.209V90.5771H512.451C511.946 91.2087 510.114 91.6507 506.957 91.9033C506.957 91.5876 506.388 91.4297 505.252 91.4297C505.315 91.4297 505.094 91.4297 504.588 91.4297C502.126 92.0612 500.357 92.377 499.284 92.377L496.537 91.9033L495.116 92.7559L493.221 92.377C492.59 92.377 490.948 92.6611 488.295 93.2295C484.759 92.6611 482.801 92.0612 482.422 91.4297H481.759C480.938 92.3138 480.37 92.7559 480.054 92.7559C479.233 92.1875 478.444 91.9033 477.686 91.9033H477.307C476.802 91.9033 475.034 92.6296 472.003 94.082L471.339 93.7031H462.909C461.961 93.7031 460.856 93.8294 459.593 94.082C459.151 93.8294 458.614 93.7031 457.983 93.7031C456.53 93.7031 455.804 93.9242 455.804 94.3662C455.11 93.9242 454.194 93.7031 453.057 93.7031H450.784C450.531 93.7031 449.521 93.9873 447.753 94.5557H446.237C445.669 94.5557 444.532 94.2715 442.827 93.7031L437.522 95.0293C437.333 95.0293 436.985 94.8714 436.48 94.5557C428.712 95.124 422.113 95.4082 416.682 95.4082H415.167C414.219 95.4082 413.083 95.5661 411.756 95.8818L409.957 95.0293L398.874 95.8818L396.979 95.4082C396.032 95.7871 395.558 96.0713 395.558 96.2607L392.053 95.8818H386.749C385.296 95.8818 383.402 96.1976 381.065 96.8291C380.307 96.8291 379.707 96.6712 379.265 96.3555L366.288 97.208L364.014 96.7344C362.12 97.3659 360.857 97.6816 360.225 97.6816L356.436 97.208C340.08 98.1553 319.145 100.018 293.632 102.797C293.822 102.86 293.001 104.376 291.169 107.344C291.169 108.038 289.149 112.301 285.107 120.132C280.308 134.215 277.908 141.635 277.908 142.393C277.908 142.708 278.034 143.15 278.287 143.719C277.529 146.75 277.15 149.844 277.15 153.002V156.98C277.781 160.706 279.897 162.569 283.497 162.569C287.601 162.569 295.243 158.875 306.42 151.486C309.704 149.465 312.609 147.413 315.135 145.329C318.419 141.793 324 137 325 135.5L331 134C330.432 137.852 325.461 138.604 323.945 141.635C315.862 151.423 310.146 157.044 306.799 158.496C305.221 160.138 302.821 161.906 299.6 163.801C293.159 168.221 287.665 170.432 283.118 170.432C277.876 169.674 274.056 167.811 271.656 164.843C271.656 163.706 271.024 162.254 269.761 160.485L270.14 159.728V158.78C270.14 157.707 269.761 156.633 269.003 155.56V154.802L269.761 153.476V150.823C269.761 149.75 269.888 148.392 270.14 146.75C269.888 146.182 269.761 145.771 269.761 145.519C270.519 141.098 272.035 135.951 274.308 130.078C274.687 126.415 275.697 123.605 277.339 121.647C278.097 117.732 279.234 114.796 280.75 112.838C282.518 109.428 283.402 107.217 283.402 106.207C283.023 106.207 282.581 106.049 282.076 105.733L249.395 111.985C247.185 110.849 245.764 109.586 245.132 108.196C245.385 106.681 245.511 105.923 245.511 105.923L246.459 103.839C267.235 99.292 281.665 96.5765 289.749 95.6924C293.601 90.1351 295.527 86.5355 295.527 84.8936C296.474 83.6305 298.211 80.1257 300.737 74.3789L301.305 74ZM528.175 88.1143H526.47V86.125H528.175V88.1143ZM541.816 86.9775V90.293H538.595V86.9775H541.816ZM546.742 88.9668H545.037V86.9775H546.742V88.9668ZM548.257 89.251C547.121 89.0615 546.552 88.4616 546.552 87.4512H548.257V89.251ZM556.404 88.209V88.7773C556.53 88.7773 556.278 89.0931 555.646 89.7246H555.457C554.825 88.9036 555.141 88.3984 556.404 88.209ZM569.666 89.0615C570.234 88.6826 569.855 88.4932 568.529 88.4932C568.529 88.3669 568.529 88.3037 568.529 88.3037H569.476V88.6826L569.666 89.0615ZM500.326 91.2402C500.326 89.2194 500.957 88.0827 502.22 87.8301H504.304V89.8193L503.262 92.1875C502.189 91.556 501.21 91.2402 500.326 91.2402ZM550.152 89.251C550.278 89.251 550.341 89.5036 550.341 90.0088L553.657 89.1562C550.689 89.1562 549.205 89.1562 549.205 89.1562L550.152 89.251ZM560.003 90.7666H558.298V88.7773H560.003V90.7666Z" fill="#FF0C00"/>
<path d="M259.72 99.5762C262.373 100.081 263.762 100.334 263.888 100.334V101.471C263.004 104.312 258.836 108.228 251.384 113.217C247.658 115.49 244.88 116.627 243.048 116.627C240.522 116.311 239.259 115.048 239.259 112.838C239.259 110.943 243.301 108.038 251.384 104.123C253.405 102.607 256.184 101.092 259.72 99.5762ZM238.88 130.646H239.638C241.028 130.646 242.038 131.278 242.669 132.541V133.678C238.375 141.761 236.228 148.329 236.228 153.381V157.549C236.228 159.507 236.986 160.896 238.502 161.717H241.533C244.88 161.717 250.816 157.928 259.341 150.35C260.099 150.35 260.857 149.592 261.615 148.076C261.994 148.076 265.404 144.54 271.845 137.467C272.224 137.467 272.603 136.709 272.982 135.193C274.498 134.183 275.634 133.678 276.392 133.678H276.771C277.276 133.741 277.529 133.993 277.529 134.436C275.382 141.193 271.087 148.266 264.646 155.654C257.131 162.854 250.69 167.148 245.322 168.537L241.533 169.295C232.692 168.285 228.271 163.99 228.271 156.412C227.955 156.412 227.703 155.654 227.513 154.139C229.408 144.161 232.186 137.467 235.849 134.057L238.88 130.646Z" fill="#FF0C00"/>
<path d="M186.212 78.0732L187.633 78.4521L190.665 78.0732C191.801 78.0732 192.37 78.2943 192.37 78.7363C193.696 78.5469 194.359 78.3258 194.359 78.0732C199.474 78.5153 202.979 79.0837 204.874 79.7783L205.631 79.3994C214.346 80.9782 220.44 83.599 223.914 87.2617C226.377 90.5456 227.608 93.9242 227.608 97.3975C226.282 103.586 221.766 110.154 214.062 117.101C210.147 120.321 205.158 123.479 199.095 126.573C196.19 128.405 190.317 131.12 181.476 134.72L181.192 135.383C194.58 138.856 206.231 145.076 216.146 154.044C218.23 155.686 220.377 159.885 222.587 166.643L222.209 167.306C222.903 169.516 223.251 170.968 223.251 171.663C223.251 175.389 220.63 180.725 215.388 187.672C211.283 191.966 203.484 196.355 191.991 200.839L179.487 203.207L177.782 202.544C175.193 203.681 171.119 204.249 165.562 204.249L164.236 203.586C163.983 203.586 163.068 203.712 161.489 203.965L158.458 203.586C157.195 203.839 156.279 203.965 155.711 203.965C154.89 203.46 153.879 203.207 152.679 203.207C152.427 203.207 152.079 203.333 151.637 203.586C147.532 202.891 145.164 202.228 144.533 201.597C144.343 201.597 143.649 201.691 142.449 201.881C139.102 200.87 137.081 200.207 136.386 199.892H136.007L135.06 200.555H134.681C133.544 200.555 132.976 200.207 132.976 199.513H130.608C130.608 197.934 129.692 197.145 127.861 197.145V196.766H125.872C125.24 196.766 124.545 196.545 123.788 196.103C123.409 196.355 122.967 196.481 122.461 196.481C122.146 195.913 119.999 194.997 116.02 193.734C116.02 193.04 114.441 192.598 111.284 192.408C110.589 190.829 108.442 189.693 104.842 188.998C104.842 188.745 104.4 188.398 103.516 187.956H102.758C97.3274 195.218 93.6015 200.997 91.5806 205.291C91.1386 205.291 90.0019 206.775 88.1705 209.743C86.5285 210.501 84.9498 213.09 83.4341 217.511C82.9289 217.511 80.7818 220.226 76.9927 225.657C76.4875 225.657 73.772 228.246 68.8463 233.425C67.8358 233.425 66.6991 234.435 65.4361 236.456H62.4048V235.793C62.4048 235.288 63.5416 234.404 65.815 233.141L65.4361 231.436C66.8886 230.362 68.0253 228.657 68.8463 226.32C70.6776 225.626 71.8144 225.057 72.2564 224.615L71.9722 223.952V223.573C73.9931 222.31 75.0035 221.079 75.0035 219.879H73.9615V218.837C74.7193 218.837 75.2877 218.174 75.6666 216.848C76.1718 216.848 76.6138 215.932 76.9927 214.101C78.3189 212.269 79.1083 211.354 79.3609 211.354C79.3609 211.606 79.4872 211.732 79.7398 211.732C79.4241 212.806 78.982 213.374 78.4136 213.438C78.6031 213.88 78.6978 214.227 78.6978 214.479H79.0767C80.6555 213.027 81.4449 211.89 81.4449 211.069C81.1923 210.185 80.7186 209.743 80.024 209.743V209.364C82.3606 206.586 84.413 203.428 86.1812 199.892C88.0126 199.45 88.9283 198.755 88.9283 197.808L88.5494 196.481C88.6757 195.282 90.2545 193.576 93.2857 191.366C93.3489 190.924 93.5699 190.703 93.9488 190.703L93.6646 190.04V189.377C93.7909 189.377 94.233 189.251 94.9908 188.998L94.6119 186.63H96.317V185.967C95.6854 183.251 94.3277 181.894 92.2437 181.894C90.5386 181.894 88.8651 180.631 87.2232 178.104C85.1392 177.473 81.7291 175.326 76.9927 171.663H76.7086C76.456 171.663 76.3297 171.789 76.3297 172.042C75.8876 172.042 74.5298 170.558 72.2564 167.59C70.8039 167.59 69.6672 166.485 68.8463 164.274C69.0989 163.832 69.2252 163.359 69.2252 162.854H67.5201C67.1412 161.717 66.5728 161.148 65.815 161.148L66.1939 159.443C65.4361 159.001 64.8677 158.78 64.4888 158.78V157.833C65.3729 157.833 65.815 157.58 65.815 157.075C64.8677 157.075 63.952 156.065 63.0679 154.044C63.4468 153.16 63.7942 152.718 64.1099 152.718C65.1203 154.802 66.6991 156.949 68.8463 159.159C68.8463 161.875 70.425 163.232 73.5826 163.232V163.517L72.9195 164.559C72.9826 165.001 73.2037 165.222 73.5826 165.222H74.6246C74.8772 165.222 75.0035 165.127 75.0035 164.938C76.456 164.938 77.5927 165.727 78.4136 167.306C80.7502 168.506 84.0025 170.747 88.1705 174.031C92.5279 176.62 95.938 178.326 98.4009 179.146H98.6851C98.8114 179.146 99.1588 178.925 99.7271 178.483H100.106V179.81C100.485 180.062 100.927 180.188 101.432 180.188C101.685 179.936 101.906 178.452 102.095 175.736L100.769 176.778V176.115C100.769 175.421 101.432 174.726 102.758 174.031C102.885 174.536 103.137 174.789 103.516 174.789L103.8 174.031L103.137 173.747C103.137 173.937 103.011 174.031 102.758 174.031C102.758 173.589 102.664 173.368 102.474 173.368L106.169 166.927C106.8 165.601 107.589 164.938 108.537 164.938L108.253 164.274C108.442 162.443 109.01 161.527 109.958 161.527C110.4 161.78 110.715 161.906 110.905 161.906C111.6 161.022 111.947 160.327 111.947 159.822C111.252 159.57 110.905 159.349 110.905 159.159C110.905 158.717 111.473 157.359 112.61 155.086L114.031 155.465C114.473 155.212 114.789 155.086 114.978 155.086V154.423L114.315 153.381V152.718C115.767 152.718 117.125 151.234 118.388 148.266H119.43V147.318H118.104C117.599 147.318 117.346 147.76 117.346 148.645H117.062C117.062 147.508 115.357 146.718 111.947 146.276C111.947 146.024 111.852 145.897 111.663 145.897L111.947 144.192V143.908H111.284V143.529L111.947 142.487V142.203H111.284C110.842 142.203 110.621 142.55 110.621 143.245H109.579C109.579 140.151 113.999 137.183 122.84 134.341C124.103 132.32 125.24 131.31 126.251 131.31L125.493 130.362L128.903 127.899V127.615H128.619L126.914 127.899L128.903 123.826C130.419 122.374 131.903 118.869 133.355 113.312C134.302 112.617 137.113 106.649 141.786 95.4082C141.344 95.4082 141.123 95.2819 141.123 95.0293C129.124 99.1341 115.799 105.797 101.148 115.017C92.4963 120.89 86.1496 125.879 82.108 129.983L79.7398 135.383L78.0347 135.762C75.8244 135.762 74.4667 134.625 73.9615 132.352C74.593 129.068 77.1822 125.437 81.7291 121.458C86.2128 118.3 88.9283 115.838 89.8755 114.069C94.9908 110.47 99.1903 107.975 102.474 106.586C102.79 105.323 105.379 103.618 110.242 101.471H110.905L113.273 101.85L113.652 101.187C113.652 100.681 113.431 100.429 112.989 100.429L112.326 100.808V100.429C117.946 96.5133 122.335 94.3662 125.493 93.9873C125.493 93.3558 126.85 92.9137 129.566 92.6611C129.566 91.5876 134.429 89.5667 144.154 86.5986C149.522 84.3252 153.374 83.1885 155.711 83.1885H158.079C158.079 82.557 159.342 81.9886 161.868 81.4834L163.478 81.7676C166.636 80.5046 174.214 79.2731 186.212 78.0732ZM172.382 87.2617L171.625 86.8828C163.541 88.4616 157.226 89.9456 152.679 91.335C144.028 112.049 137.902 125.279 134.302 131.025V131.973C137.523 131.846 139.133 131.531 139.133 131.025L141.502 131.31H143.87C144.375 131.31 144.817 131.215 145.196 131.025C145.638 131.215 145.985 131.31 146.238 131.31L148.89 130.646C148.89 131.089 152.742 131.531 160.447 131.973C160.952 131.973 161.426 131.878 161.868 131.688L163.857 131.973H166.888C182.108 126.857 194.454 121.458 203.926 115.774C212.325 109.08 217.409 103.176 219.177 98.0605L219.461 96.0713L219.177 95.4082C219.367 94.9661 219.461 94.6188 219.461 94.3662C219.461 91.9665 215.641 89.472 208 86.8828H207.242C207.052 86.8828 206.958 87.0091 206.958 87.2617C205.568 86.3145 201.274 85.6198 194.075 85.1777C192.433 85.4303 191.517 85.5566 191.328 85.5566C190.128 85.304 189.117 85.1777 188.296 85.1777C186.97 85.6198 181.666 86.3145 172.382 87.2617ZM146.522 143.245C146.143 142.993 145.701 142.866 145.196 142.866C145.196 143.94 141.565 144.729 134.302 145.234V145.613L133.639 145.234H133.355C128.366 146.055 125.872 146.75 125.872 147.318C120.062 156.917 113.399 168.884 105.884 183.22C113.399 187.135 121.072 190.293 128.903 192.692C129.598 193.261 132.881 194.082 138.754 195.155C139.007 195.408 142.733 196.071 149.932 197.145C151.132 196.892 151.827 196.766 152.016 196.766C154.479 197.271 156.058 197.744 156.753 198.187L158.079 197.523L164.236 198.187C181.855 196.355 192.938 193.987 197.485 191.082C203.863 188.367 208.378 184.956 211.031 180.852C212.799 179.715 214.504 175.768 216.146 169.011C214.63 164.969 213.367 162.033 212.357 160.201C211.41 159.57 209.705 157.644 207.242 154.423C205.916 153.034 204.81 152.339 203.926 152.339C202.158 151.392 200.895 150.255 200.137 148.929C198.685 148.929 193.948 147.034 185.928 143.245C184.097 143.245 181.255 142.456 177.403 140.877C177.15 140.877 176.835 140.972 176.456 141.161C171.719 140.277 167.741 139.835 164.52 139.835C153.721 142.108 147.722 143.245 146.522 143.245ZM111.947 158.117V158.78H112.989C112.989 158.591 113.084 158.275 113.273 157.833L112.61 157.454C112.168 157.517 111.947 157.738 111.947 158.117ZM110.242 159.443H110.905V160.201H110.242V159.443ZM104.842 171.379V172.705H105.505V171.379H104.842ZM86.1812 201.218C86.2444 201.66 86.4654 201.881 86.8443 201.881L87.2232 201.218V200.555H86.8443C86.4022 200.618 86.1812 200.839 86.1812 201.218ZM72.2564 221.584H72.6353V222.247H72.2564V221.584ZM61.0787 237.214H62.1207V238.161H61.0787V237.214Z" fill="#FF0C00"/>
<path d="M309.847 243.152H307.072L306.9 240.377C306.026 241.353 304.962 242.126 303.707 242.696C302.453 243.253 301.078 243.532 299.582 243.532C297.72 243.532 296.047 243.101 294.564 242.24C293.082 241.378 291.909 240.199 291.048 238.704C290.199 237.209 289.774 235.523 289.774 233.648C289.774 231.76 290.199 230.074 291.048 228.592C291.909 227.096 293.082 225.918 294.564 225.056C296.047 224.195 297.72 223.764 299.582 223.764C301.027 223.764 302.358 224.023 303.574 224.543C304.803 225.063 305.855 225.785 306.729 226.71V214.64H309.847V243.152ZM299.867 240.719C301.135 240.719 302.288 240.427 303.327 239.845C304.366 239.249 305.19 238.444 305.798 237.431C306.419 236.404 306.729 235.245 306.729 233.952V233.306C306.729 232.013 306.419 230.86 305.798 229.846C305.19 228.82 304.366 228.015 303.327 227.432C302.288 226.849 301.135 226.558 299.867 226.558C298.55 226.558 297.371 226.868 296.332 227.489C295.293 228.11 294.469 228.953 293.861 230.017C293.265 231.082 292.968 232.286 292.968 233.629C292.968 234.972 293.265 236.182 293.861 237.259C294.469 238.324 295.293 239.167 296.332 239.788C297.371 240.408 298.55 240.719 299.867 240.719ZM332.409 240.814C330.052 242.626 327.455 243.532 324.616 243.532C322.639 243.532 320.865 243.089 319.294 242.202C317.722 241.315 316.481 240.111 315.568 238.59C314.668 237.057 314.219 235.327 314.219 233.401C314.219 231.551 314.637 229.903 315.473 228.459C316.31 227.001 317.456 225.855 318.914 225.018C320.371 224.182 322.025 223.764 323.875 223.764C325.776 223.764 327.448 224.22 328.893 225.132C330.35 226.045 331.484 227.312 332.295 228.934C333.106 230.556 333.512 232.431 333.512 234.56V235.169H317.602C317.83 236.284 318.286 237.253 318.971 238.077C319.655 238.9 320.51 239.54 321.537 239.997C322.576 240.453 323.729 240.681 324.996 240.681C327.176 240.681 329.165 239.965 330.965 238.533L332.409 240.814ZM317.488 232.507H330.566C330.426 231.329 330.059 230.302 329.463 229.428C328.88 228.541 328.12 227.85 327.182 227.356C326.257 226.862 325.212 226.615 324.046 226.615C322.867 226.615 321.803 226.862 320.852 227.356C319.915 227.85 319.148 228.541 318.552 229.428C317.97 230.302 317.615 231.329 317.488 232.507ZM336.572 241.498L337.39 238.571C337.846 239.002 338.365 239.376 338.948 239.692C339.531 240.009 340.146 240.256 340.792 240.434C341.438 240.599 342.091 240.681 342.75 240.681C343.928 240.681 344.879 240.421 345.601 239.902C346.323 239.382 346.685 238.704 346.685 237.868C346.685 237.259 346.494 236.759 346.114 236.366C345.747 235.961 345.259 235.612 344.651 235.321C344.042 235.029 343.39 234.75 342.693 234.484C341.844 234.155 341.001 233.781 340.165 233.363C339.328 232.945 338.631 232.393 338.074 231.709C337.529 231.025 337.257 230.125 337.257 229.01C337.257 227.945 337.523 227.02 338.055 226.235C338.587 225.449 339.328 224.841 340.279 224.41C341.242 223.979 342.344 223.764 343.586 223.764C345.462 223.764 347.305 224.233 349.118 225.17L348.186 227.983C347.781 227.717 347.312 227.483 346.78 227.28C346.247 227.065 345.702 226.9 345.145 226.786C344.587 226.672 344.061 226.615 343.567 226.615C342.642 226.615 341.894 226.83 341.324 227.261C340.754 227.679 340.469 228.243 340.469 228.953C340.469 229.358 340.583 229.732 340.811 230.074C341.052 230.404 341.451 230.733 342.009 231.063C342.566 231.392 343.339 231.76 344.328 232.165C345.202 232.52 346.064 232.926 346.913 233.382C347.762 233.825 348.465 234.402 349.023 235.112C349.593 235.808 349.878 236.721 349.878 237.849C349.878 238.964 349.58 239.952 348.985 240.814C348.402 241.663 347.584 242.328 346.532 242.81C345.493 243.291 344.29 243.532 342.921 243.532C340.653 243.532 338.536 242.854 336.572 241.498ZM356.075 218.137C355.542 218.137 355.092 217.954 354.725 217.586C354.37 217.206 354.193 216.75 354.193 216.217C354.193 215.698 354.37 215.254 354.725 214.887C355.092 214.519 355.542 214.336 356.075 214.336C356.619 214.336 357.076 214.519 357.443 214.887C357.811 215.254 357.994 215.698 357.994 216.217C357.994 216.75 357.811 217.206 357.443 217.586C357.076 217.954 356.619 218.137 356.075 218.137ZM357.633 243.152H354.516V224.144H357.633V243.152ZM371.718 243.152C369.893 243.152 368.252 242.727 366.795 241.878C365.351 241.029 364.21 239.876 363.374 238.419C362.537 236.949 362.119 235.295 362.119 233.458C362.119 231.608 362.537 229.954 363.374 228.497C364.21 227.039 365.351 225.886 366.795 225.037C368.252 224.188 369.9 223.764 371.737 223.764C373.207 223.764 374.557 224.042 375.786 224.6C377.015 225.145 378.061 225.905 378.922 226.881L379.074 224.144H381.831V242.658C381.831 244.787 381.412 246.624 380.576 248.17C379.74 249.729 378.549 250.926 377.003 251.763C375.457 252.612 373.619 253.036 371.49 253.036C368.474 253.036 365.851 252.035 363.621 250.033L364.989 247.524C366.725 249.323 368.848 250.223 371.357 250.223C372.865 250.223 374.164 249.906 375.254 249.273C376.356 248.652 377.205 247.771 377.801 246.63C378.409 245.49 378.713 244.14 378.713 242.582V240.244C377.852 241.143 376.819 241.853 375.615 242.373C374.424 242.892 373.125 243.152 371.718 243.152ZM371.984 240.396C373.226 240.396 374.354 240.117 375.368 239.559C376.382 238.989 377.193 238.216 377.801 237.24C378.409 236.252 378.713 235.137 378.713 233.895V233.021C378.713 231.766 378.409 230.651 377.801 229.675C377.193 228.699 376.382 227.933 375.368 227.375C374.354 226.805 373.226 226.52 371.984 226.52C370.705 226.52 369.558 226.824 368.544 227.432C367.53 228.041 366.725 228.871 366.13 229.922C365.547 230.961 365.256 232.14 365.256 233.458C365.256 234.776 365.547 235.961 366.13 237.012C366.725 238.064 367.53 238.894 368.544 239.502C369.558 240.098 370.705 240.396 371.984 240.396ZM405.344 243.152H402.226V232.184C402.226 230.474 401.745 229.118 400.782 228.117C399.831 227.115 398.532 226.615 396.885 226.615C395.707 226.615 394.648 226.881 393.711 227.413C392.773 227.933 392.032 228.668 391.487 229.618C390.942 230.569 390.669 231.671 390.669 232.926V243.152H387.552V224.144H390.27L390.384 227.223C391.081 226.108 392.044 225.253 393.274 224.657C394.515 224.061 395.909 223.764 397.455 223.764C399.876 223.764 401.795 224.492 403.215 225.95C404.634 227.407 405.344 229.371 405.344 231.842V243.152ZM419.03 241.498L419.847 238.571C420.303 239.002 420.823 239.376 421.406 239.692C421.988 240.009 422.603 240.256 423.249 240.434C423.896 240.599 424.548 240.681 425.207 240.681C426.386 240.681 427.336 240.421 428.058 239.902C428.781 239.382 429.142 238.704 429.142 237.868C429.142 237.259 428.952 236.759 428.572 236.366C428.204 235.961 427.716 235.612 427.108 235.321C426.5 235.029 425.847 234.75 425.15 234.484C424.301 234.155 423.458 233.781 422.622 233.363C421.786 232.945 421.089 232.393 420.531 231.709C419.986 231.025 419.714 230.125 419.714 229.01C419.714 227.945 419.98 227.02 420.512 226.235C421.044 225.449 421.786 224.841 422.736 224.41C423.699 223.979 424.802 223.764 426.044 223.764C427.919 223.764 429.763 224.233 431.575 225.17L430.644 227.983C430.238 227.717 429.769 227.483 429.237 227.28C428.705 227.065 428.16 226.9 427.602 226.786C427.045 226.672 426.519 226.615 426.025 226.615C425.099 226.615 424.352 226.83 423.782 227.261C423.211 227.679 422.926 228.243 422.926 228.953C422.926 229.358 423.04 229.732 423.268 230.074C423.509 230.404 423.908 230.733 424.466 231.063C425.023 231.392 425.796 231.76 426.785 232.165C427.659 232.52 428.521 232.926 429.37 233.382C430.219 233.825 430.922 234.402 431.48 235.112C432.05 235.808 432.335 236.721 432.335 237.849C432.335 238.964 432.037 239.952 431.442 240.814C430.859 241.663 430.042 242.328 428.99 242.81C427.951 243.291 426.747 243.532 425.378 243.532C423.11 243.532 420.994 242.854 419.03 241.498ZM447.732 242.696C446.477 243.253 445.254 243.532 444.063 243.532C442.923 243.532 441.922 243.285 441.06 242.791C440.198 242.284 439.527 241.581 439.045 240.681C438.564 239.769 438.323 238.71 438.323 237.507V226.938H434.996V224.144H438.475V219.392H441.44V224.144H447.124V226.938H441.44V236.936C441.44 238.077 441.744 238.996 442.353 239.692C442.973 240.389 443.784 240.738 444.786 240.738C445.597 240.738 446.408 240.497 447.219 240.016L447.732 242.696ZM469.325 243.152H466.588L466.474 240.073C465.777 241.188 464.858 242.043 463.718 242.639C462.59 243.234 461.253 243.532 459.707 243.532C457.185 243.532 455.189 242.772 453.719 241.251C452.262 239.718 451.533 237.627 451.533 234.978V224.144H454.651V234.75C454.651 236.55 455.158 237.988 456.171 239.065C457.198 240.142 458.56 240.681 460.258 240.681C462.032 240.681 463.464 240.098 464.554 238.932C465.657 237.766 466.208 236.246 466.208 234.37V224.144H469.325V243.152ZM493.77 243.152H490.994L490.823 240.377C489.949 241.353 488.884 242.126 487.63 242.696C486.375 243.253 485 243.532 483.505 243.532C481.642 243.532 479.97 243.101 478.487 242.24C477.004 241.378 475.832 240.199 474.971 238.704C474.121 237.209 473.697 235.523 473.697 233.648C473.697 231.76 474.121 230.074 474.971 228.592C475.832 227.096 477.004 225.918 478.487 225.056C479.97 224.195 481.642 223.764 483.505 223.764C484.95 223.764 486.28 224.023 487.497 224.543C488.726 225.063 489.778 225.785 490.652 226.71V214.64H493.77V243.152ZM483.79 240.719C485.058 240.719 486.211 240.427 487.25 239.845C488.289 239.249 489.113 238.444 489.721 237.431C490.342 236.404 490.652 235.245 490.652 233.952V233.306C490.652 232.013 490.342 230.86 489.721 229.846C489.113 228.82 488.289 228.015 487.25 227.432C486.211 226.849 485.058 226.558 483.79 226.558C482.472 226.558 481.294 226.868 480.255 227.489C479.216 228.11 478.392 228.953 477.784 230.017C477.188 231.082 476.89 232.286 476.89 233.629C476.89 234.972 477.188 236.182 477.784 237.259C478.392 238.324 479.216 239.167 480.255 239.788C481.294 240.408 482.472 240.719 483.79 240.719ZM501.297 218.137C500.765 218.137 500.315 217.954 499.947 217.586C499.592 217.206 499.415 216.75 499.415 216.217C499.415 215.698 499.592 215.254 499.947 214.887C500.315 214.519 500.765 214.336 501.297 214.336C501.842 214.336 502.298 214.519 502.665 214.887C503.033 215.254 503.217 215.698 503.217 216.217C503.217 216.75 503.033 217.206 502.665 217.586C502.298 217.954 501.842 218.137 501.297 218.137ZM502.855 243.152H499.738V224.144H502.855V243.152ZM517.302 243.532C515.414 243.532 513.715 243.101 512.207 242.24C510.7 241.378 509.508 240.206 508.634 238.723C507.772 237.228 507.341 235.536 507.341 233.648C507.341 231.772 507.772 230.093 508.634 228.611C509.508 227.115 510.7 225.937 512.207 225.075C513.715 224.201 515.414 223.764 517.302 223.764C519.19 223.764 520.882 224.201 522.377 225.075C523.872 225.937 525.051 227.115 525.912 228.611C526.774 230.093 527.205 231.772 527.205 233.648C527.205 235.536 526.774 237.228 525.912 238.723C525.051 240.206 523.872 241.378 522.377 242.24C520.882 243.101 519.19 243.532 517.302 243.532ZM517.283 240.719C518.563 240.719 519.709 240.408 520.723 239.788C521.737 239.167 522.535 238.324 523.118 237.259C523.714 236.195 524.012 234.991 524.012 233.648C524.012 232.305 523.714 231.101 523.118 230.036C522.535 228.972 521.737 228.129 520.723 227.508C519.709 226.887 518.563 226.577 517.283 226.577C516.003 226.577 514.85 226.887 513.823 227.508C512.809 228.129 512.005 228.972 511.409 230.036C510.826 231.101 510.535 232.305 510.535 233.648C510.535 234.991 510.826 236.195 511.409 237.259C512.005 238.324 512.809 239.167 513.823 239.788C514.85 240.408 516.003 240.719 517.283 240.719Z" fill="white"/>
</svg>
